<?xml version="1.0" standalone="no"?>
<!DOCTYPE svg PUBLIC "-//W3C//DTD SVG 1.1//EN" "http://www.w3.org/Graphics/SVG/1.1/DTD/svg11.dtd" >
<svg xmlns="http://www.w3.org/2000/svg">
<metadata></metadata>
<defs>
<font id="enitablightregular" horiz-adv-x="1046" >
<font-face units-per-em="2048" ascent="1608" descent="-440" />
<missing-glyph horiz-adv-x="471" />
<glyph unicode="&#xfb01;" horiz-adv-x="1021" d="M164 0v1159q83 97 185.5 142.5t240.5 54.5l-19 -90q-202 -17 -319 -140v-229h287l-43 -84h-242v-813h-90zM750 1290q0 26 19.5 46t45.5 20q28 0 48 -19t20 -47q0 -26 -20 -45.5t-46 -19.5q-28 0 -47.5 18.5t-19.5 46.5zM774 0v893l88 39v-932h-88z" />
<glyph unicode="&#xfb02;" horiz-adv-x="1026" d="M164 0v1159q83 97 185.5 142.5t240.5 54.5l-19 -90q-202 -17 -319 -140v-229h287l-43 -84h-242v-813h-90zM774 0v1315l88 41v-1356h-88z" />
<glyph horiz-adv-x="2048" />
<glyph horiz-adv-x="2048" />
<glyph unicode="&#xd;" horiz-adv-x="2048" />
<glyph unicode=" "  horiz-adv-x="471" />
<glyph unicode="&#x09;" horiz-adv-x="471" />
<glyph unicode="&#xa0;" horiz-adv-x="471" />
<glyph unicode="!" horiz-adv-x="458" d="M160 55q0 28 20 49t49 21q28 0 49 -21t21 -49q0 -29 -21 -49t-49 -20q-29 0 -49 20t-20 49zM186 350v965l86 41v-1006h-86z" />
<glyph unicode="&#x22;" horiz-adv-x="428" d="M82 1085q48 156 51 263l86 8q0 -130 -51 -281zM209 1075q49 149 49 273l88 8q0 -136 -49 -291z" />
<glyph unicode="#" horiz-adv-x="1255" d="M82 328l24 86h271l24 245h-313l25 86h297l30 299l88 41l-32 -340h264l31 299l88 41l-33 -340h328l-44 -86h-294l-23 -245h354l-41 -86h-321l-33 -328h-88l35 328h-264l-33 -328h-88l35 328h-287zM463 414h264l25 245h-267z" />
<glyph unicode="$" horiz-adv-x="1038" d="M123 1036v4q0 124 100.5 210t268.5 98v227l94 47v-272q148 -12 282 -84l-16 -99q-45 34 -134 62t-171 28q-148 0 -240 -61t-92 -149q0 -120 160 -216l340 -200q100 -60 150 -148t50 -188v-8q-3 -121 -85.5 -203.5t-243.5 -91.5v-234h-92v234q-167 5 -334 74l-15 108 q104 -49 195 -69.5t213 -20.5q125 0 194.5 65t69.5 160v2q0 72 -45.5 140.5t-128.5 117.5l-324 185q-193 109 -196 282z" />
<glyph unicode="%" horiz-adv-x="1484" d="M102 979q0 191 55 284t185 93q129 0 184.5 -92.5t55.5 -282.5q0 -173 -53.5 -267t-184.5 -93q-130 0 -186 93.5t-56 264.5zM188 981q0 -151 38 -212.5t118 -61.5t117 60.5t37 213.5v-2q0 117 -20 182.5t-52 87t-84 21.5t-83.5 -21t-51 -86t-19.5 -182zM233 -23l908 1362 l106 17l-905 -1372zM901 344q0 191 56 284t184 93q130 0 185.5 -92t55.5 -283q0 -83 -11.5 -146t-37.5 -113t-73.5 -76t-114.5 -25q-131 0 -187.5 93.5t-56.5 264.5zM987 346q0 -151 38 -212.5t118 -61.5t116.5 60t36.5 212q0 89 -10 147.5t-31 89t-47 42.5t-65 12 q-52 0 -84 -21t-52 -86t-20 -182z" />
<glyph unicode="&#x26;" horiz-adv-x="1396" d="M143 295q2 101 80 201t242 190q-45 37 -85 78t-80 92t-63.5 108.5t-23.5 110.5q0 113 86 181.5t242 68.5q88 0 154.5 -20t104.5 -55.5t56 -79t18 -95.5q0 -44 -10 -84t-33.5 -77t-44 -64.5t-59 -62.5t-60 -53t-65.5 -52l406 -379l243 201v-115l-180 -147l244 -242h-125 l-189 186q-133 -109 -239 -162t-225 -53q-173 0 -284.5 93.5t-109.5 230.5zM240 291q0 -99 84 -164.5t211 -65.5q143 0 284 99l119 88l-408 381q-50 -27 -96.5 -59t-92.5 -75.5t-73.5 -96.5t-27.5 -107zM301 1069q0 -133 236 -330q48 35 85 66.5t76 75t60.5 94t21.5 102.5 v-2q-2 67 -59.5 114.5t-179.5 47.5q-118 0 -179 -48.5t-61 -119.5z" />
<glyph unicode="'" horiz-adv-x="299" d="M82 1079q46 148 49 269l86 8q0 -143 -49 -285z" />
<glyph unicode="(" horiz-adv-x="552" d="M121 612q0 270 93.5 470.5t242.5 324.5l32 -98q-130 -126 -202 -301.5t-72 -393.5q0 -234 75.5 -431.5t201.5 -299.5l-19 -110q-158 118 -255 343.5t-97 495.5z" />
<glyph unicode=")" horiz-adv-x="552" d="M61 -117q126 102 201.5 299.5t75.5 431.5q0 218 -72.5 393.5t-202.5 301.5l33 98q149 -124 242.5 -324.5t93.5 -470.5t-97 -495.5t-255 -343.5z" />
<glyph unicode="*" horiz-adv-x="925" d="M61 946l13 82h317l-166 287l78 31l160 -277l166 287l63 -51l-160 -277h332l-12 -82h-320l166 -287l-75 -30l-160 276l-166 -287l-64 52l160 276h-332z" />
<glyph unicode="+" horiz-adv-x="1249" d="M82 483l22 88h486v459l86 41v-500h491l-41 -86h-448v-499h-88v497h-508z" />
<glyph unicode="," horiz-adv-x="245" d="M-61 -399q78 100 126.5 246t51.5 259l88 9h-2q0 -138 -54.5 -293t-117.5 -230z" />
<glyph unicode="-" horiz-adv-x="667" d="M82 473l22 88h482l-41 -88h-463z" />
<glyph unicode="." horiz-adv-x="280" d="M82 55q0 28 20.5 48t49.5 20q28 0 47.5 -20t19.5 -48q0 -29 -19.5 -49t-47.5 -20q-29 0 -49.5 20t-20.5 49z" />
<glyph unicode="/" horiz-adv-x="671" d="M82 -14l412 1355l96 17l-412 -1368z" />
<glyph unicode="0" horiz-adv-x="1126" d="M121 647q0 370 104 539.5t340 169.5t337.5 -168.5t101.5 -540.5q0 -164 -21.5 -281.5t-71 -205.5t-135 -131t-209.5 -43q-123 0 -209.5 43t-138 129.5t-75 205.5t-23.5 283zM215 647q0 -309 83 -439t269 -130q124 0 198 54.5t110 179t36 335.5q0 144 -14 249.5t-40.5 176 t-69.5 113t-96 60.5t-124 18q-91 0 -153.5 -28.5t-108.5 -97.5t-68 -190t-22 -301z" />
<glyph unicode="1" horiz-adv-x="1126" d="M268 1325q98 16 183 16q117 0 204 -22v-1319h-92v1239q-47 8 -106 8q-88 0 -176 -14z" />
<glyph unicode="2" horiz-adv-x="1126" d="M166 125q21 69 71.5 138t113 127.5t133 117t137 116.5t121 117t87.5 126.5t33 136.5q0 84 -42 144t-108.5 88t-148.5 28q-107 0 -190.5 -25.5t-165.5 -79.5l-14 101q169 96 368 96q168 0 280.5 -94.5t112.5 -257.5q0 -82 -33.5 -159.5t-87.5 -140.5t-120.5 -122.5 t-137.5 -116.5t-133 -111.5t-112 -117.5t-70 -125v-17h735l-16 -94h-795z" />
<glyph unicode="3" horiz-adv-x="1126" d="M174 1341h731q27 0 35.5 -6.5t5.5 -29.5l-6 -45l-457 -429h31q198 0 328.5 -119.5t130.5 -314.5h-2q0 -79 -29 -152t-83.5 -131t-142 -93t-194.5 -35q-73 0 -165.5 16.5t-157.5 42.5l-21 113q180 -82 330 -82q167 0 269.5 88.5t103.5 236.5q0 90 -35 157t-94.5 104.5 t-129 55t-149.5 17.5q-59 0 -135 -12l-14 86l471 440h-602z" />
<glyph unicode="4" horiz-adv-x="1126" d="M127 412v82q0 48 33 98l499 749h107l-510 -776q-24 -35 -31 -61h473v325l95 43v-366h215l-52 -94h-163v-412h-93v412h-573z" />
<glyph unicode="5" horiz-adv-x="1126" d="M123 172q147 -94 330 -94q73 0 137.5 23t115.5 66.5t81 114.5t30 160q0 131 -91.5 224.5t-248.5 93.5q-128 0 -311 -70l-12 88l141 563h594l-19 -92h-501l-107 -428q115 31 215 31q187 0 310.5 -117t123.5 -291q0 -112 -37.5 -201t-101.5 -144.5t-146 -84t-175 -28.5 q-166 0 -308 71z" />
<glyph unicode="6" horiz-adv-x="1126" d="M115 528q0 144 26.5 267.5t83.5 227.5t142 177.5t207 114.5t272 41l-23 -92q-259 -7 -410 -150t-192 -403q135 174 379 174q187 0 298.5 -121.5t111.5 -312.5q0 -127 -51.5 -232t-151 -169t-227.5 -64q-115 0 -205 43.5t-146 119.5t-85 172.5t-29 206.5zM209 492 q5 -85 29 -158t68 -131.5t113.5 -91.5t158.5 -33q152 0 244.5 107.5t92.5 263.5h3q0 147 -85.5 244.5t-230.5 97.5q-156 0 -261.5 -85t-131.5 -214z" />
<glyph unicode="7" horiz-adv-x="1126" d="M106 1341h807q58 0 58 -55v-84q-162 -251 -328.5 -576.5t-290.5 -625.5h-100q134 315 303.5 655t318.5 572v20h-751z" />
<glyph unicode="8" horiz-adv-x="1126" d="M111 389q0 133 65.5 227t181.5 136q-84 42 -137 109.5t-53 158.5q0 155 109 245.5t286 90.5t285 -89.5t108 -244.5q0 -91 -53 -158.5t-139 -109.5q118 -42 185 -136.5t67 -228.5v2q0 -92 -37 -169.5t-100 -128.5t-144.5 -79t-171.5 -28q-120 0 -221.5 47t-166 140.5 t-64.5 215.5zM203 391q0 -137 102.5 -225t257.5 -88t258 88t103 225v-2q0 141 -96 223t-265 82t-264.5 -82t-95.5 -221zM262 1022q0 -95 94 -162t203 -67q111 0 207 66.5t96 162.5l2 -2q0 111 -78 177.5t-223 66.5t-223 -66.5t-78 -175.5z" />
<glyph unicode="9" horiz-adv-x="1126" d="M117 891q0 127 51.5 232t151 169t227.5 64q114 0 204.5 -44t146.5 -119.5t85 -172.5t29 -207q0 -178 -41 -323.5t-125 -257.5t-222 -176.5t-321 -69.5l-12 94q276 6 424.5 148t189.5 403q-135 -174 -379 -174q-187 0 -298 121.5t-111 312.5zM209 893q0 -147 85 -244.5 t230 -97.5q156 0 262 85t132 214q-5 85 -29 158t-68 131.5t-113.5 91.5t-158.5 33q-152 0 -246 -107.5t-94 -263.5z" />
<glyph unicode=":" horiz-adv-x="382" d="M123 55q0 28 20.5 48t49.5 20q28 0 47.5 -20t19.5 -48q0 -29 -19.5 -49t-47.5 -20q-29 0 -49.5 20t-20.5 49zM123 862q0 28 20.5 49t49.5 21q27 0 47 -21t20 -49t-19.5 -48.5t-47.5 -20.5q-29 0 -49.5 20.5t-20.5 48.5z" />
<glyph unicode=";" horiz-adv-x="393" d="M-20 -399q78 100 126.5 246t51.5 259l88 9h-2q0 -138 -54.5 -293t-117.5 -230zM131 862q0 28 21 49t49 21t48.5 -21t20.5 -49t-20.5 -48.5t-48.5 -20.5t-49 20.5t-21 48.5z" />
<glyph unicode="&#x3c;" horiz-adv-x="1017" d="M82 449v100l774 448l80 -55l-768 -444l768 -443l-78 -55z" />
<glyph unicode="=" horiz-adv-x="1030" d="M82 326l22 88h844l-41 -88h-825zM82 659l22 86h844l-41 -86h-825z" />
<glyph unicode="&#x3e;" horiz-adv-x="1017" d="M82 55l768 443l-768 444l80 55l774 -448v-100l-776 -449z" />
<glyph unicode="?" horiz-adv-x="866" d="M82 1278q155 78 301 78q190 0 306 -106t116 -263q0 -83 -28.5 -154.5t-73.5 -127t-92 -106t-93 -115.5t-69 -132h-97q13 60 46.5 118.5t73.5 102.5t84 93.5t79.5 93.5t58.5 102t23 119q0 113 -92 201t-240 88q-149 0 -279 -82zM330 55q0 28 19.5 48t47.5 20 q29 0 49.5 -20t20.5 -48q0 -29 -20 -49t-48 -20q-29 0 -49 20t-20 49z" />
<glyph unicode="@" horiz-adv-x="1974" d="M123 502q0 195 66 364.5t185 293t293 194.5t380 71q182 0 335 -64t254.5 -172.5t158 -250.5t56.5 -299q0 -171 -45 -306t-128 -211.5t-191 -76.5q-93 0 -157 47.5t-75 97.5q-81 -53 -179 -84.5t-193 -31.5q-120 0 -191 63q-82 69 -82 199q0 109 74 183.5t205 94.5l344 56 v20q0 113 -49.5 164t-134.5 51q-138 0 -363 -141l-18 88q208 133 376 133q272 0 275 -303v-395q0 -61 45.5 -108.5t130.5 -47.5q49 0 95.5 30.5t86 90t63 160.5t23.5 229q0 192 -94 353.5t-256 255t-354 93.5q-170 0 -322 -57t-268 -161.5t-184 -265.5t-68 -357 q0 -139 43 -265.5t117.5 -222.5t173 -166.5t213 -107.5t233.5 -37q148 0 249.5 30t215.5 87l-10 -107q-223 -94 -438 -94q-255 0 -459 115.5t-318 317.5t-114 450zM696 336q0 -86 50 -132t145 -46q166 0 342 116v312l-332 -54q-205 -34 -205 -196z" />
<glyph unicode="A" horiz-adv-x="1130" d="M20 0l424 1233q25 71 69.5 97t117.5 26h35l444 -1356h-98l-156 477h-573l-164 -477h-99zM315 569h510l-225 693q-29 -3 -43 -16t-25 -44z" />
<glyph unicode="B" horiz-adv-x="1159" d="M184 0v1305q181 51 367 51q67 0 125 -10t111.5 -33.5t92 -59.5t61 -92t22.5 -127q0 -84 -47 -158.5t-134 -109.5q112 -40 178 -146.5t66 -232.5q-1 -174 -112 -280.5t-285 -106.5h-445zM276 92h353q145 0 225 86.5t80 208.5q0 154 -100.5 242t-255.5 88h-302v-625z M276 809h306q73 0 130.5 20.5t91 54t50 72t16.5 78.5q0 65 -29 112t-79 72t-108 36.5t-126 11.5q-148 0 -252 -37v-420z" />
<glyph unicode="C" horiz-adv-x="1267" d="M133 668q0 164 47.5 297t130 217t189.5 129t229 45q93 0 198 -29t175 -76l-2 -106q-77 59 -179.5 91t-203.5 34q-140 0 -253 -79.5t-176 -217.5t-63 -305q0 -124 31.5 -229.5t93 -186.5t160.5 -127.5t225 -46.5q211 0 369 98l-19 -115q-157 -75 -348 -75 q-146 0 -262.5 53.5t-190.5 147t-112.5 216.5t-38.5 265z" />
<glyph unicode="D" horiz-adv-x="1406" d="M184 8v1313q229 35 396 35q150 0 269 -36.5t197.5 -99.5t130.5 -152t74.5 -188.5t22.5 -213.5q0 -108 -23.5 -200.5t-65.5 -161t-101.5 -123.5t-128.5 -91t-150.5 -59.5t-164 -34t-171.5 -10.5q-102 0 -242 18zM279 90q115 -14 198 -14q111 0 209 17t191 60t159 108.5 t106 169t40 235.5q0 103 -19 189t-63 162.5t-112 129.5t-171.5 84.5t-236.5 32.5q-137 0 -301 -23v-1151z" />
<glyph unicode="E" d="M184 0v1298q309 58 613 58q19 0 58 -1t58 -1l-14 -92q-17 0 -49 1t-49 1q-286 0 -520 -43v-463h530l-49 -94h-481v-570h612l-19 -94h-690z" />
<glyph unicode="F" horiz-adv-x="950" d="M184 0v1298q309 58 572 58q18 0 55 -1t57 -1l-22 -92q-29 2 -88 2q-236 0 -479 -41v-465h485l-49 -94h-434v-664h-97z" />
<glyph unicode="G" horiz-adv-x="1378" d="M133 668q0 317 164.5 502.5t458.5 185.5q210 0 393 -125l-8 -113q-90 76 -192 111t-191 35q-252 0 -392.5 -155.5t-140.5 -438.5q0 -124 35.5 -231t101.5 -187.5t168 -127t228 -46.5q200 0 342 106v539l94 47v-629q-183 -155 -434 -155q-145 0 -264 53t-198 145.5 t-122 217t-43 266.5z" />
<glyph unicode="H" horiz-adv-x="1402" d="M184 0v1309l92 47v-611h848v564l95 47v-1356h-93v653h-847v-653h-95z" />
<glyph unicode="I" horiz-adv-x="462" d="M184 0v1309l95 47v-1356h-95z" />
<glyph unicode="J" horiz-adv-x="471" d="M-113 -27l19 90q150 0 218.5 84.5t68.5 274.5v887l94 47v-932q0 -93 -14 -165t-41.5 -120.5t-62 -82t-82 -51t-94.5 -25t-106 -7.5z" />
<glyph unicode="K" horiz-adv-x="1138" d="M184 0v1309l92 47v-602l662 602v-121l-600 -545l801 -690h-140l-720 618v-618h-95z" />
<glyph unicode="L" horiz-adv-x="966" d="M184 0v1309l92 47v-1262h650l-17 -94h-716h-9z" />
<glyph unicode="M" horiz-adv-x="1593" d="M143 0l119 1309l86 47l443 -1114l432 1114l90 -45l137 -1311h-94l-119 1139l-412 -1059h-73l-414 1055l-100 -1135h-95z" />
<glyph unicode="N" horiz-adv-x="1325" d="M184 0v1300l111 56l752 -1247v1200l94 47v-1360q-33 0 -48.5 0.5t-39 4.5t-37 12.5t-30 24.5t-30.5 40l-677 1128v-1206h-95z" />
<glyph unicode="O" horiz-adv-x="1447" d="M133 653q0 150 36 276.5t107 223t185.5 151t261.5 54.5q118 0 216 -35.5t167 -99.5t116.5 -152.5t70 -193.5t22.5 -224q0 -170 -47.5 -300.5t-130.5 -209t-187.5 -118t-226.5 -39.5q-97 0 -182 22t-161 73t-130 126.5t-85.5 189.5t-31.5 256zM225 653q0 -126 26.5 -225 t72 -163.5t109.5 -107t135.5 -60t154.5 -17.5q82 0 153.5 19.5t135.5 63t110 108.5t72.5 163t26.5 219q0 185 -54.5 320.5t-167.5 213t-276 77.5t-276 -77.5t-167.5 -213t-54.5 -320.5z" />
<glyph unicode="P" horiz-adv-x="1189" d="M184 0v1309q239 47 383 47q100 0 187.5 -23.5t158.5 -71t112.5 -128.5t41.5 -187q0 -115 -39.5 -200t-111.5 -134.5t-162.5 -72.5t-202.5 -23h-272l2 -516h-97zM279 606h270q423 0 426 340q0 70 -23.5 125t-62 90.5t-92.5 59t-111 33t-121 10.5q-104 0 -286 -31v-627z " />
<glyph unicode="Q" horiz-adv-x="1441" d="M133 653q0 150 36 276.5t106 223t184 151t260 54.5t260.5 -54.5t185.5 -151t107.5 -223t36.5 -276.5q0 -170 -47.5 -300.5t-130 -209t-187 -118t-225.5 -39.5q134 -14 278.5 -81t214.5 -136l-18 -93q-94 87 -235 149t-252 75v86q-94 1 -177 24.5t-156.5 74.5t-126.5 127 t-83.5 188.5t-30.5 252.5zM225 653q0 -156 39.5 -270.5t110 -179t156 -94t188.5 -29.5q81 0 153 19.5t135.5 63t108.5 108.5t71.5 163t26.5 219q0 282 -126 446.5t-367 164.5q-162 0 -275 -77.5t-167 -213t-54 -320.5z" />
<glyph unicode="R" horiz-adv-x="1210" d="M184 0v1311q215 45 391 45q219 0 341 -99.5t122 -312.5q0 -124 -77 -220.5t-226 -127.5l352 -596h-108l-344 584h-31h-325v-584h-95zM279 676h352q143 0 222.5 73t80.5 216v-2v6q0 66 -20 117q-21 53 -56 85.5t-86.5 53t-106 28t-120.5 7.5q-109 0 -266 -25v-559z" />
<glyph unicode="S" horiz-adv-x="1038" d="M123 1047q0 133 116 221t306 88q81 0 168 -24.5t155 -59.5l-16 -98q-45 34 -134 62t-171 28q-148 0 -240 -61.5t-92 -149.5q0 -124 160 -217l340 -201q200 -119 200 -350q0 -60 -22 -113t-64.5 -95t-113 -66.5t-160.5 -24.5q-120 0 -211 16.5t-184 56.5l-15 109 q104 -49 195 -69.5t213 -20.5q124 0 194 65t70 158q0 83 -49 152t-125 114l-324 189q-196 116 -196 291z" />
<glyph unicode="T" horiz-adv-x="1060" d="M51 1247l15 94h964l-14 -92h-428v-1249h-94v1247h-443z" />
<glyph unicode="U" horiz-adv-x="1331" d="M184 426v883l92 47v-928q0 -95 29 -164.5t80.5 -108.5t113 -57t134.5 -18q230 0 420 110v1119l94 47v-1215q-203 -155 -510 -155q-211 0 -332 113.5t-121 326.5z" />
<glyph unicode="V" horiz-adv-x="1214" d="M61 1309l82 47l426 -1227q11 -30 22.5 -39t41.5 -10l407 1229l113 47l-451 -1370h-34q-38 0 -60.5 3t-48.5 13t-44.5 34t-31.5 62z" />
<glyph unicode="W" horiz-adv-x="1789" d="M61 1309l82 47l424 -1227q11 -30 22 -39t42 -10l237 702l-182 527l82 47l422 -1227q11 -30 21.5 -39t41.5 -10l365 1229l111 47l-406 -1370h-35q-38 0 -60.5 3t-48.5 13t-44 34t-31 62l-186 541l-220 -653h-32q-30 0 -48.5 1.5t-42 7.5t-39.5 17.5t-31 33t-26 52.5z" />
<glyph unicode="X" horiz-adv-x="1243" d="M61 0l502 684l-461 623l82 49l434 -592l402 545l145 47l-489 -670l506 -686h-115l-446 608l-443 -608h-117z" />
<glyph unicode="Y" horiz-adv-x="1146" d="M184 713v596l92 47v-627q0 -99 47.5 -170.5t119.5 -104t157 -32.5q76 0 147 29t121 84v774l95 47v-928q0 -93 -14 -165.5t-41.5 -121.5t-62 -82.5t-81.5 -52t-95 -26t-106 -7.5l19 93q149 0 217.5 84t68.5 272q-121 -87 -268 -90q-175 0 -295.5 104t-120.5 277z" />
<glyph unicode="Z" horiz-adv-x="1251" d="M123 141l885 1106h-856l-19 94h946q45 0 45 -34v-13l-8 -59l-901 -1126q-4 -4 -4 -9q0 -6 8 -6h909l-16 -94h-919q-34 0 -44.5 13.5t-15.5 52.5z" />
<glyph unicode="[" horiz-adv-x="555" d="M143 0v1356h351l-15 -88h-248v-1180h263l-15 -88h-336z" />
<glyph unicode="\" horiz-adv-x="624" d="M61 1358l95 -17l407 -1341l-94 4z" />
<glyph unicode="]" horiz-adv-x="540" d="M61 0l11 88h237v1180h-248l13 88h323v-1356h-336z" />
<glyph unicode="^" horiz-adv-x="780" d="M41 825l297 516h100l301 -514l-55 -79l-295 507l-293 -507z" />
<glyph unicode="_" horiz-adv-x="811" d="M82 0l22 88h625l-41 -88h-606z" />
<glyph unicode="`" horiz-adv-x="772" d="M205 1202l16 92q124 -118 346 -190l-215 -2q-92 48 -147 100z" />
<glyph unicode="a" horiz-adv-x="1003" d="M102 254v5q0 64 24 115q25 53 70.5 87.5t99.5 55.5t120 32l336 53q0 133 -50.5 189.5t-142.5 56.5q-143 0 -379 -148l-16 93q217 139 391 139q285 0 285 -318v-614h-88v88q-178 -102 -367 -102q-142 0 -211.5 74t-71.5 194zM193 254q0 -184 202 -184q92 0 172.5 28 t184.5 92v324l-346 -55q-113 -18 -163 -70t-50 -135z" />
<glyph unicode="b" horiz-adv-x="1005" d="M164 0v1313l88 43v-488q128 64 262 64q110 0 197.5 -62t134.5 -166t47 -229q0 -224 -96 -356.5t-275 -132.5q-164 0 -270 106v-92h-88zM252 283q0 -76 75 -142.5t193 -66.5q133 0 209 101t76 300q0 163 -84 266t-207 103q-131 0 -262 -76v-485z" />
<glyph unicode="c" horiz-adv-x="954" d="M113 451q0 100 26 186t76.5 152.5t131.5 104.5t183 38q83 0 164 -31t137 -84l-18 -108q-30 58 -112.5 99.5t-170.5 41.5h-5q-83 0 -146 -31q-65 -32 -103.5 -88.5t-57.5 -126.5t-19 -153q0 -177 105 -278t280 -101q102 0 204 30l-12 -92q-94 -24 -188 -24 q-216 0 -345.5 125t-129.5 340z" />
<glyph unicode="d" horiz-adv-x="1021" d="M113 449q0 206 114.5 344.5t300.5 138.5q154 0 242 -80v461l88 43v-1356h-86v82q-47 -38 -118.5 -67t-143.5 -29q-99 0 -176.5 37t-124.5 101.5t-71.5 147t-24.5 177.5zM218.5 304q17.5 -67 53.5 -120t97 -82.5t141 -29.5q90 0 152 34.5t110 110.5v432q0 94 -66.5 145.5 t-175.5 51.5h-5q-143 0 -233 -110q-92 -110 -91 -281q0 -84 17.5 -151z" />
<glyph unicode="e" horiz-adv-x="946" d="M113 449q0 90 26.5 175.5t74.5 154.5t123 111t165 42q83 0 146 -30t97.5 -78.5t51 -102t16.5 -109.5q0 -39 -10.5 -68t-26 -44t-39.5 -24t-43.5 -11.5t-46.5 -3.5l-448 -23q14 -364 401 -364q121 0 168 14l-18 -88q-69 -14 -150 -14q-228 0 -357.5 120t-129.5 343z M205 526l440 21q23 2 29.5 2.5t21.5 4.5t19.5 10t9 17.5t4.5 28.5q0 110 -61 172t-172 62h2q-62 0 -115 -28t-88 -75t-57.5 -101.5t-32.5 -113.5z" />
<glyph unicode="f" horiz-adv-x="610" d="M164 0v1159q83 97 185.5 142.5t240.5 54.5l-19 -90q-202 -17 -319 -140v-229h287l-43 -84h-242v-813h-90z" />
<glyph unicode="g" horiz-adv-x="997" d="M113 449v7q0 123 35 216q35 96 96.5 151t135.5 82t159 27q173 0 295 -86v-783q0 -110 -21 -193t-55 -133.5t-85 -81.5t-104 -42.5t-118 -11.5q-116 0 -256 55l28 88q156 -66 252 -66q133 0 203.5 99.5t71.5 294.5q-41 -41 -104.5 -63.5t-133.5 -22.5h-6q-72 0 -137 24 q-68 26 -126.5 79t-93.5 146t-36 214zM205 455q0 -78 17 -144.5t51.5 -122t95 -87t141.5 -31.5q75 0 140.5 32.5t99.5 94.5v598q-80 47 -218 51q-151 0 -239 -103.5t-88 -287.5z" />
<glyph unicode="h" d="M164 0v1315l86 41v-559q81 58 178 96.5t184 38.5q118 0 194.5 -77t76.5 -212v-643h-88v621q0 107 -50.5 167t-136.5 60t-184.5 -48.5t-171.5 -115.5v-684h-88z" />
<glyph unicode="i" horiz-adv-x="458" d="M164 1290q0 27 19 46.5t46 19.5t46.5 -19.5t19.5 -46.5q0 -26 -19.5 -45.5t-46.5 -19.5t-46 19t-19 46zM186 0v893l88 39v-932h-88z" />
<glyph unicode="j" horiz-adv-x="434" d="M-147 -399l18 82q157 0 225 89t68 283v840l88 37v-877q0 -111 -21 -192.5t-55.5 -131t-88 -79.5t-108.5 -40.5t-126 -10.5zM139 1290q0 27 19.5 46.5t46.5 19.5t46 -19t19 -47q0 -27 -19 -46t-46 -19t-46.5 19t-19.5 46z" />
<glyph unicode="k" horiz-adv-x="858" d="M164 0v1315l86 41v-811l487 387v-107l-434 -342l545 -483h-129l-467 420v-420h-88z" />
<glyph unicode="l" horiz-adv-x="415" d="M164 0v1315l88 41v-1356h-88z" />
<glyph unicode="m" horiz-adv-x="1665" d="M164 0v723q91 90 214.5 149.5t225.5 59.5q195 0 254 -144q78 65 179 105q99 39 184 39h4q116 -2 196 -75.5t80 -207.5v-649h-88v618q0 109 -49 168.5t-135 61.5q-83 0 -184 -46t-164 -104v-34v-664h-86v621q0 107 -50.5 167t-136.5 60t-184.5 -48.5t-171.5 -115.5v-684 h-88z" />
<glyph unicode="n" horiz-adv-x="1044" d="M164 0v723q91 90 214.5 149.5t225.5 59.5q124 0 200.5 -72.5t76.5 -208.5v-651h-88v618q0 109 -49.5 169.5t-135.5 60.5q-148 0 -356 -164v-684h-88z" />
<glyph unicode="o" d="M113 444q0 221 104.5 354.5t304.5 133.5q202 0 307 -133t105 -355v2q0 -120 -33 -210.5t-90.5 -144t-129.5 -79.5t-157 -26q-86 0 -157.5 24t-129.5 76t-91 143t-33 215zM201 446q0 -372 321 -372q68 0 124 19t102 61t72 116t26 176v-2q0 192 -82.5 296t-239.5 104 t-240 -103t-83 -295z" />
<glyph unicode="p" horiz-adv-x="1015" d="M164 -385v1171q62 74 152.5 110t193.5 36q88 0 163 -39t124.5 -102.5t77.5 -142.5t28 -161v2q0 -237 -121.5 -370t-306.5 -133q-135 0 -223 63v-434h-88zM250 162q51 -47 103 -68.5t122 -21.5q69 0 129 25t108.5 74.5t76.5 131t28 186.5v-2q0 144 -88 251.5t-219 107.5 q-79 0 -149 -25t-111 -65v-594z" />
<glyph unicode="q" horiz-adv-x="1003" d="M113 467q0 101 22.5 181t61 133t92.5 87.5t113 49.5q56 14 120 14h8q161 0 310 -70v-1247h-88v434q-92 -63 -207 -63q-81 0 -158 33t-138.5 93t-98.5 152.5t-37 202.5zM201 469q0 -92 30 -168.5t79 -125t111 -75t128 -26.5q115 0 203 88v643q-124 45 -220 45 q-69 0 -126 -19.5t-104.5 -61.5t-74 -118.5t-26.5 -181.5z" />
<glyph unicode="r" horiz-adv-x="622" d="M164 0v725q135 179 438 207l-14 -86q-103 -9 -194.5 -50.5t-141.5 -99.5v-696h-88z" />
<glyph unicode="s" horiz-adv-x="811" d="M113 717q0 97 88.5 156t228.5 59q111 0 217 -58l-10 -86q-45 20 -65.5 29t-62.5 20t-79 11q-119 0 -173 -34t-54 -103q0 -35 28 -72.5t74 -65.5l264 -159q129 -77 129 -224q0 -85 -76 -144.5t-202 -59.5q-165 0 -279 57l-12 104q144 -75 289 -75q86 0 139 35t53 88 q0 92 -116 163l-248 152q-58 37 -95.5 91t-37.5 116z" />
<glyph unicode="t" horiz-adv-x="579" d="M164 180v950l88 39v-272h246l-43 -84h-203v-633q0 -108 119 -108q35 0 73 10l21 -86q-41 -10 -96 -10q-87 0 -146 47.5t-59 146.5z" />
<glyph unicode="u" horiz-adv-x="1032" d="M164 319v564l86 49v-613q0 -131 60 -190t159 -59q74 0 157.5 28t153.5 72v713l88 49v-932h-88v72q-165 -86 -319 -86q-151 0 -224 89t-73 244z" />
<glyph unicode="v" horiz-adv-x="882" d="M51 885l78 47l277 -842q11 -33 24 -33l295 828l106 47l-329 -946h-76q-43 0 -69.5 25.5t-41.5 78.5z" />
<glyph unicode="w" horiz-adv-x="1347" d="M51 885l74 47l324 -842q6 -19 10.5 -25t13.5 -6l166 533l-94 293l84 47l248 -840q5 -19 9 -26t13 -7l293 826l104 47l-323 -946h-68q-48 0 -72 12.5t-34 50.5l-117 402l-147 -465h-68q-72 0 -92 59z" />
<glyph unicode="x" horiz-adv-x="899" d="M51 0l344 477l-299 408l80 47l273 -379l247 342l138 37l-330 -455l344 -477h-109l-290 403l-289 -403h-109z" />
<glyph unicode="y" horiz-adv-x="1009" d="M164 319v566l86 47v-610q0 -132 56.5 -192t150.5 -60q71 0 153 28.5t148 71.5v715l88 47v-854q0 -477 -383 -477q-115 0 -258 55l28 88q149 -63 252 -63q138 0 208.5 109.5t70.5 285.5q-169 -90 -313 -90h-6q-125 0 -202 78q-79 79 -79 255z" />
<glyph unicode="z" horiz-adv-x="987" d="M102 78l637 735h-637l13 84h716q16 0 25.5 -9t9.5 -26v-37l-641 -739h660l-13 -86h-710q-29 0 -37 7t-14 36z" />
<glyph unicode="{" horiz-adv-x="577" d="M61 455l27 106q45 0 77 33.5t32 69.5v389q0 303 319 303l-18 -90q-36 0 -59.5 -2.5t-53.5 -15.5t-47.5 -36.5t-30 -68.5t-12.5 -109v-354q0 -75 -37 -118.5t-74 -49.5q38 -11 74.5 -59t36.5 -134v-368q0 -77 16.5 -126t50 -71.5t67.5 -29.5t87 -7l-22 -90 q-42 0 -80.5 7.5t-79 28t-69.5 52.5t-47.5 86.5t-18.5 124.5v406q0 42 -36 82.5t-102 40.5z" />
<glyph unicode="}" horiz-adv-x="561" d="M61 -373l17 90q51 0 82 6.5t59.5 29t41.5 70.5t13 126v370q0 86 37.5 134.5t75.5 56.5q-38 8 -74.5 51.5t-36.5 118.5v354q0 63 -13 108.5t-32 70t-49.5 38.5t-55.5 17.5t-60 3.5l24 84q283 0 283 -303v-387q0 -36 40.5 -69.5t86.5 -33.5l-25 -106q-102 0 -102 -125v-406 q0 -88 -23.5 -148.5t-68 -92.5t-97.5 -45t-123 -13z" />
<glyph unicode="~" horiz-adv-x="985" d="M164 1190l24 104q46 11 95 11q72 0 133.5 -21.5t98 -46.5t85 -46.5t96.5 -21.5q56 0 105 15l20 -88q-74 -19 -131 -19q-68 0 -126 21t-93 45.5t-88 45.5t-111 21q-61 0 -108 -20z" />
<glyph unicode="&#xa1;" horiz-adv-x="460" d="M160 1286q0 29 21 49.5t50 20.5q28 0 48 -20.5t20 -49.5q0 -28 -20 -48.5t-48 -20.5q-29 0 -50 20.5t-21 48.5zM186 -14v1005h88v-964z" />
<glyph unicode="&#xa2;" horiz-adv-x="954" d="M113 451q0 110 28.5 198t78 144t109 89t128.5 44v149l86 41v-184q81 -3 158 -33t130 -80l-18 -108q-28 55 -105 95t-165 46v-780q5 0 15 -1t15 -1q118 0 215 32l-12 -92q-94 -24 -188 -24q-29 0 -43 2v-142h-88v154q-153 35 -248.5 149t-95.5 302zM199 451 q0 -149 70.5 -239.5t187.5 -123.5v758q-112 -24 -185 -120.5t-73 -274.5z" />
<glyph unicode="&#xa3;" horiz-adv-x="1060" d="M123 0v88h182v707h-182v86h182v270q176 207 475 207q39 0 117 -8l-20 -86q-31 4 -95 4q-121 0 -222.5 -35.5t-162.5 -110.5v-241h332l-37 -86h-295v-707h561l-18 -88h-817z" />
<glyph unicode="&#xa5;" horiz-adv-x="1552" d="M164 549v760l92 47v-807q0 -73 28.5 -129.5t77 -90.5t108.5 -51.5t128 -17.5q101 0 207.5 36.5t181.5 92.5l-4 928l88 37v-967h420l-41 -88h-379v-106h332l-41 -89h-289v-94q0 -39 -5 -77.5t-17 -83t-34.5 -83.5t-54 -73t-79.5 -58.5t-107 -33.5l-16 96q109 22 168 105 t59 212v265q-177 -109 -389 -109q-88 0 -165.5 24t-138 70t-95.5 119.5t-35 165.5z" />
<glyph unicode="&#xa7;" horiz-adv-x="1122" d="M123 520q0 101 62.5 189t168.5 127q-104 101 -104 258v16q105 121 234.5 178t299.5 68l-20 -90q-277 -24 -426 -189q4 -63 29 -113t64.5 -83.5t89 -60.5t104 -48.5t108 -43.5t102 -49t85.5 -60t58.5 -83t20.5 -112q-2 -98 -63 -184.5t-158 -126.5q114 -92 109 -228 q-3 -71 -34.5 -127.5t-83.5 -91t-116 -53.5t-137 -21l14 89q124 8 196 62.5t75 145.5q3 78 -50 131.5t-159 102.5q-28 13 -91.5 39t-106 44.5t-98.5 52t-90 67t-58.5 84.5t-24.5 110zM209 520q0 -46 22 -85.5t55.5 -66.5t85 -54t98.5 -45.5t108.5 -44.5t103.5 -48 q52 8 98.5 36t78.5 67.5t45.5 87.5t5.5 94.5t-47 90.5t-107 73q-17 7 -96.5 39t-129 54.5t-92.5 49.5q-105 -18 -167 -90.5t-62 -157.5z" />
<glyph unicode="&#xa8;" horiz-adv-x="880" d="M205 1225q0 27 19 46t46 19t46.5 -19t19.5 -46t-19.5 -46.5t-46.5 -19.5q-26 0 -45.5 19.5t-19.5 46.5zM543 1225q0 27 19 46t46 19t47.5 -19t20.5 -46q0 -26 -20 -46t-48 -20q-26 0 -45.5 19.5t-19.5 46.5z" />
<glyph unicode="&#xa9;" horiz-adv-x="790" d="M102 1042q0 129 92 221.5t222 92.5q129 0 221 -92t92 -222q0 -129 -91.5 -221t-221.5 -92q-129 0 -221.5 91.5t-92.5 221.5zM152 1042q0 -109 77.5 -186.5t186.5 -77.5t186.5 77.5t77.5 186.5t-77.5 187t-186.5 78t-186.5 -78t-77.5 -187zM254 1042q0 81 44.5 134 t123.5 53q46 0 90 -17l-10 -53q-43 21 -80 21q-55 0 -87 -36.5t-32 -99.5t34.5 -99t84.5 -36q41 0 80 25l-6 -60q-38 -14 -74 -14q-70 0 -119 49t-49 133z" />
<glyph unicode="&#xaa;" horiz-adv-x="653" d="M72 899q0 80 57.5 135t159.5 72l209 33q-5 135 -113 135q-87 0 -260 -105l-14 88q153 99 270 99q103 0 152 -58.5t49 -162.5v-416h-84v49q-111 -57 -228 -57q-99 0 -148.5 52.5t-49.5 135.5zM158 899q0 -56 29 -81t89 -25q57 0 107 16.5t115 54.5v189l-213 -33 q-127 -19 -127 -121z" />
<glyph unicode="&#xab;" horiz-adv-x="634" d="M82 487l143 347l103 26l-152 -373l160 -391h-88zM279 487l143 347l102 26l-151 -373l159 -391h-88z" />
<glyph unicode="&#xac;" horiz-adv-x="1132" d="M61 582v80h949v-662h-97v582h-852z" />
<glyph unicode="&#xad;" horiz-adv-x="667" d="M82 473l22 88h482l-41 -88h-463z" />
<glyph unicode="&#xae;" horiz-adv-x="790" d="M102 1042q0 129 92 221.5t222 92.5q129 0 221 -92t92 -222q0 -129 -91.5 -221t-221.5 -92q-129 0 -221.5 91.5t-92.5 221.5zM152 1042q0 -109 77.5 -186.5t186.5 -77.5t186.5 77.5t77.5 186.5t-77.5 187t-186.5 78t-186.5 -78t-77.5 -187zM309 872v338q87 15 105 15 q51 0 91 -27t40 -76q0 -31 -19.5 -58t-52.5 -40l90 -152h-55l-84 138h-14h-52l2 -138h-51zM358 1059h50q36 0 61 20.5t25 42.5v-2q0 54 -84 54q-17 0 -52 -5v-110z" />
<glyph unicode="&#xaf;" horiz-adv-x="880" d="M197 1188l22 88h481l-41 -88h-462z" />
<glyph unicode="&#xb0;" horiz-adv-x="790" d="M82 1042q0 129 91.5 221.5t221.5 92.5q129 0 221.5 -92t92.5 -222q0 -129 -92 -221t-222 -92q-129 0 -221 91.5t-92 221.5zM143 1042q0 -102 74.5 -175.5t177.5 -73.5t176.5 73t73.5 176t-73.5 176.5t-176.5 73.5t-177.5 -73.5t-74.5 -176.5z" />
<glyph unicode="&#xb1;" horiz-adv-x="1040" d="M82 135l22 88h854l-40 -88h-836zM82 690l22 86h377v340l88 39v-379h389l-40 -86h-349v-375h-88v375h-399z" />
<glyph unicode="&#xb2;" horiz-adv-x="651" d="M72 643q16 54 63 110t102 101.5t107.5 91t87.5 95.5t35 98q0 56 -40 92.5t-112 36.5q-106 0 -194 -58l-17 93q97 53 209 53q104 0 173 -58t69 -159q-1 -67 -34 -126t-83.5 -104.5t-103 -86t-101.5 -88t-69 -93.5h416l-19 -90h-473z" />
<glyph unicode="&#xb3;" horiz-adv-x="641" d="M72 1341h434q54 0 49 -38l-6 -35l-244 -219q125 -11 194.5 -87.5t69.5 -175.5q0 -114 -79 -182.5t-195 -68.5q-107 0 -174 34l-19 105q35 -20 87 -35.5t94 -15.5q83 0 140 41t58 124q0 47 -18.5 82t-50.5 54t-69 28t-79 9q-30 0 -65 -7l-37 74l244 223h-318z" />
<glyph unicode="&#xb4;" horiz-adv-x="772" d="M205 1102q96 32 188 81.5t156 110.5l18 -90q-42 -45 -145 -102h-217z" />
<glyph unicode="&#xb6;" horiz-adv-x="880" d="M123 877q0 201 82.5 329t226.5 150h88v-1356h-94l2 426q-131 32 -218 156t-87 295zM602 0v1309l94 47v-1356h-94z" />
<glyph unicode="&#xb7;" horiz-adv-x="268" d="M61 506q0 29 21.5 50.5t50.5 21.5q31 0 52.5 -21.5t21.5 -50.5t-21.5 -50.5t-52.5 -21.5q-29 0 -50.5 21.5t-21.5 50.5z" />
<glyph unicode="&#xb8;" horiz-adv-x="628" d="M205 -117l26 135l93 -6l-11 -71q53 -19 82 -53t29 -95v2q0 -65 -42.5 -116.5t-105.5 -55.5l-26 84q36 0 62 23.5t26 60.5q0 48 -38 70t-95 22z" />
<glyph unicode="&#xb9;" horiz-adv-x="374" d="M61 1325q74 8 101 8h2q65 0 139 -14v-768h-88v692q-14 2 -43 2q-51 0 -98 -8z" />
<glyph unicode="&#xba;" horiz-adv-x="708" d="M72 1024q0 148 71.5 240t210.5 92t211 -92t72 -240q0 -81 -23 -142.5t-62.5 -98t-89.5 -54.5t-108 -18q-124 0 -203 75.5t-79 237.5zM156 1024q0 -229 198 -229q87 0 142 54t55 175t-50.5 184.5t-146.5 63.5q-97 0 -147.5 -63.5t-50.5 -184.5z" />
<glyph unicode="&#xbb;" horiz-adv-x="634" d="M102 96l160 391l-151 373l100 -24l145 -347l-166 -393h-88zM299 96l160 391l-152 373l101 -24l145 -347l-166 -393h-88z" />
<glyph unicode="&#xbc;" horiz-adv-x="1323" d="M61 1325q74 8 101 8h2q65 0 139 -14v-768h-88v692q-14 2 -43 2q-51 0 -98 -8zM102 -23l906 1362l108 17l-905 -1372zM709 213v45q0 54 30 100l283 426h102l-315 -481h215v146l88 47v-193h139l-37 -88h-100v-215h-88v213h-317z" />
<glyph unicode="&#xbd;" horiz-adv-x="1462" d="M61 1325q74 8 99 8h4q65 0 139 -14v-768h-88v692q-14 2 -43 2q-51 0 -98 -8zM102 -23l906 1362l108 17l-905 -1372zM862 92q17 54 64.5 110t102.5 101.5t108 91t88 95.5t35 98q0 56 -40.5 92.5t-113.5 36.5q-108 0 -193 -58l-18 93q97 53 211 53q103 0 172.5 -58 t69.5 -159q-1 -67 -34 -126t-83.5 -104.5t-103.5 -86t-102 -88t-69 -93.5h414l-18 -90h-473z" />
<glyph unicode="&#xbe;" horiz-adv-x="1480" d="M61 1341h435q54 0 49 -38l-6 -35l-244 -219q125 -11 194.5 -87.5t69.5 -175.5q0 -114 -79 -182.5t-195 -68.5q-107 0 -174 34l-19 105q35 -20 86.5 -35.5t93.5 -15.5q83 0 140.5 41t58.5 124q0 47 -18.5 82t-50.5 54t-69 28t-79 9q-31 0 -66 -7l-36 74l243 223h-317z M260 -23l905 1362l109 17l-905 -1372zM866 213v45q0 53 31 100l283 426h102l-315 -481h215v146l88 47v-193h139l-37 -88h-100v-215h-88v213h-318z" />
<glyph unicode="&#xbf;" horiz-adv-x="866" d="M61 354q0 83 28.5 154.5t73 127t92 106t94 115.5t69.5 132h94q-15 -71 -58.5 -139t-93.5 -121.5t-98 -108t-80 -121.5t-32 -139q0 -113 91.5 -200.5t239.5 -87.5q146 0 279 82l24 -91q-153 -77 -303 -77q-190 0 -305 105.5t-115 262.5zM397 1286q0 29 21 49.5t49 20.5 t49 -20.5t21 -49.5q0 -27 -21 -47t-49 -20t-49 20t-21 47z" />
<glyph unicode="&#xc0;" horiz-adv-x="1130" d="M20 0l424 1233q25 71 69.5 97t117.5 26h35l444 -1356h-98l-156 477h-573l-164 -477h-99zM315 569h510l-225 693q-29 -3 -43 -16t-25 -44zM338 1552l16 93q129 -123 346 -193h-215q-99 52 -147 100z" />
<glyph unicode="&#xc1;" horiz-adv-x="1130" d="M20 0l424 1233q25 71 69.5 97t117.5 26h35l444 -1356h-98l-156 477h-573l-164 -477h-99zM315 569h510l-225 693q-29 -3 -43 -16t-25 -44zM487 1452q95 31 186.5 81t157.5 112l19 -93q-54 -51 -148 -100h-215z" />
<glyph unicode="&#xc2;" horiz-adv-x="1130" d="M20 0l424 1233q25 71 69.5 97t117.5 26h35l444 -1356h-98l-156 477h-573l-164 -477h-99zM315 569h510l-225 693q-29 -3 -43 -16t-25 -44zM322 1542q51 51 170 117h165q48 -25 98 -59t74 -58l-16 -92q-96 86 -238 152q-140 -64 -237 -150z" />
<glyph unicode="&#xc3;" horiz-adv-x="1130" d="M20 0l424 1233q25 71 69.5 97t117.5 26h35l444 -1356h-98l-156 477h-573l-164 -477h-99zM315 569h510l-225 693q-29 -3 -43 -16t-25 -44zM315 1530l19 104q37 11 78 11q59 0 110 -21.5t81 -46.5t70.5 -46.5t80.5 -21.5q46 0 86 15l18 -88q-68 -21 -106 -21 q-46 0 -85.5 14t-68.5 33.5t-56.5 39.5t-63 34t-75.5 14t-88 -20z" />
<glyph unicode="&#xc4;" horiz-adv-x="1130" d="M20 0l424 1233q25 71 69.5 97t117.5 26h35l444 -1356h-98l-156 477h-573l-164 -477h-99zM315 569h510l-225 693q-29 -3 -43 -16t-25 -44zM387 1552q0 28 19 48t47 20q26 0 46.5 -20t20.5 -46q0 -28 -19.5 -47.5t-47.5 -19.5q-26 0 -46 19.5t-20 45.5zM637 1552 q0 28 19.5 48t45.5 20q28 0 48 -20t20 -46q0 -28 -19.5 -47.5t-45.5 -19.5q-28 0 -48 19.5t-20 45.5z" />
<glyph unicode="&#xc5;" horiz-adv-x="1130" d="M20 0l424 1227q14 42 41 73q-36 23 -56.5 61.5t-20.5 82.5q0 72 52 124t124 52t124 -51t52 -123q0 -91 -78 -146l428 -1300h-98l-156 475h-573l-164 -475h-99zM315 569h510l-225 688q-29 -3 -43 -15.5t-25 -43.5zM496 1446q0 -37 25.5 -63.5t62.5 -26.5t62.5 26t25.5 64 v-2q0 37 -25.5 63.5t-62.5 26.5t-62.5 -25.5t-25.5 -62.5z" />
<glyph unicode="&#xc6;" horiz-adv-x="1728" d="M20 0l687 1231q40 70 82.5 97.5t111.5 27.5h33l20 -43q274 43 525 43q19 0 58 -1t58 -1l-16 -92q-15 0 -47.5 1t-50.5 1q-283 0 -520 -43v-465h530l-49 -92h-481v-570h614l-19 -94h-690v428h-491l-238 -428h-117zM424 520h444v4v3v4v3v4v3v4v3v4v3v4v4v3v4v3v4v3v4v3v4v4 v3v4v3v4v3v4v4v3v4v3v4v3v4v4v3v4v3v4v4v3v4v3v4v3v4v4v3v4v4v3v4v3v4v4v3v4v3v4v4v3v4v4v3v4v3v4v4v3v4v4v3v4v4v3v4v3v4v4v3v4v4v3v4v4v3v4v4v4v3v4v4v3v4v4v3v4v4v3v4v4v4v3v4v4v4v3v4v4v4v3v4v4v4v3v4v4v4v3v4v4v4v4v3v4v4v4v4v3v4v4v4v4v4v3v4v4v4v4v4v4v4v4v3v4v4v4v4 v4v4v4v4v4v4v4v4v4v4v4v4v4v5v4v4v4v4v4v5v4v4v4v5v4v4v5v4v5v4v5v4v5v5v4v5v5v5v6v5v6v6v7v5q-38 -3 -67 -60z" />
<glyph unicode="&#xc7;" horiz-adv-x="1267" d="M133 662q0 164 48.5 298t131.5 219t190 131t226 46q93 0 198 -29t175 -76l-2 -108q-77 60 -180 92.5t-203 34.5q-140 0 -253 -80.5t-176 -219.5t-63 -306q0 -146 40 -259.5t109.5 -183t157.5 -105.5t189 -38q223 0 383 98l-19 -115q-147 -72 -331 -75l-9 -54 q53 -19 82 -52t29 -93q0 -65 -42 -116.5t-105 -55.5l-27 84q36 0 62 23.5t26 60.5q0 48 -38 70t-95 22l22 109q-110 12 -204.5 60.5t-167 131t-113.5 207.5t-41 279z" />
<glyph unicode="&#xc8;" d="M184 0v1298q309 58 613 58q19 0 58 -1t58 -1l-14 -92q-17 0 -49 1t-49 1q-286 0 -520 -43v-463h530l-49 -94h-481v-570h612l-19 -94h-690zM367 1552l16 93q135 -129 346 -193h-215q-99 52 -147 100z" />
<glyph unicode="&#xc9;" d="M184 0v1298q309 58 613 58q19 0 58 -1t58 -1l-14 -92q-17 0 -49 1t-49 1q-286 0 -520 -43v-463h530l-49 -94h-481v-570h612l-19 -94h-690zM401 1454q216 71 347 193l16 -91q-41 -44 -146 -102h-217z" />
<glyph unicode="&#xca;" d="M184 0v1298q309 58 613 58q19 0 58 -1t58 -1l-14 -92q-17 0 -49 1t-49 1q-286 0 -520 -43v-463h530l-49 -94h-481v-570h612l-19 -94h-690zM291 1542q51 51 170 117h166q115 -60 172 -117l-17 -92q-97 87 -237 152q-142 -65 -238 -150z" />
<glyph unicode="&#xcb;" d="M184 0v1298q309 58 613 58q19 0 58 -1t58 -1l-14 -92q-17 0 -49 1t-49 1q-286 0 -520 -43v-463h530l-49 -94h-481v-570h612l-19 -94h-690zM281 1554q0 28 19.5 48t45.5 20q28 0 48 -20t20 -46q0 -28 -20 -47.5t-46 -19.5q-28 0 -47.5 19.5t-19.5 45.5zM664 1554 q0 28 19 48t46 20q26 0 47 -20t21 -46q0 -28 -20 -47.5t-48 -19.5q-26 0 -45.5 19.5t-19.5 45.5z" />
<glyph unicode="&#xcc;" horiz-adv-x="456" d="M33 1552l16 93q135 -129 346 -193h-215q-99 52 -147 100zM272 2v1315l88 39v-1352z" />
<glyph unicode="&#xcd;" horiz-adv-x="456" d="M49 1452q208 64 346 193l17 -93q-49 -49 -146 -100h-217zM160 2v1315l88 39v-1352z" />
<glyph unicode="&#xce;" horiz-adv-x="507" d="M0 1542q51 51 170 117h166q48 -25 98 -59t74 -58l-16 -92q-96 86 -238 152q-142 -65 -238 -150zM213 2v1315l88 39v-1352z" />
<glyph unicode="&#xcf;" horiz-adv-x="456" d="M18 1554q0 28 20 48t46 20q28 0 48 -20t20 -46q0 -28 -20 -47.5t-46 -19.5q-28 0 -48 19.5t-20 45.5zM209 2v1315l88 39v-1352zM313 1554q0 28 20 48t46 20q27 0 47 -20t20 -46q0 -28 -19.5 -47.5t-45.5 -19.5q-28 0 -48 19.5t-20 45.5z" />
<glyph unicode="&#xd0;" horiz-adv-x="1406" d="M12 811v88h172v422q243 35 379 35q342 -2 526.5 -177t184.5 -513v2q0 -151 -45.5 -270t-120.5 -195t-180.5 -126t-217.5 -70.5t-239 -20.5t-244 18l-41 6v801h-174zM279 92q115 -14 198 -14q111 0 209 17t191 60t159 108.5t106 169t40 235.5v-2q0 299 -158 447.5 t-461 150.5q-128 0 -284 -21v-344h370l-43 -88h-327v-719z" />
<glyph unicode="&#xd1;" horiz-adv-x="1325" d="M184 0v1300l111 56l752 -1247v1200l94 47v-1360q-33 0 -48.5 0.5t-39 4.5t-37 12.5t-30 24.5t-30.5 40l-677 1128v-1206h-95zM401 1522l21 104q27 8 78 8q59 0 110 -21t81 -45.5t70.5 -45.5t80.5 -21q46 0 86 15l18 -89q-65 -20 -108 -20q-46 0 -85.5 14t-67.5 33.5 t-55 39.5t-62.5 34t-75.5 14q-43 0 -91 -20z" />
<glyph unicode="&#xd2;" horiz-adv-x="1447" d="M133 653q0 150 36 276.5t107 223t185.5 151t261.5 54.5q118 0 216 -35.5t167 -99.5t116.5 -152.5t70 -193.5t22.5 -224q0 -170 -47.5 -300.5t-130.5 -209t-187.5 -118t-226.5 -39.5q-97 0 -182 22t-161 73t-130 126.5t-85.5 189.5t-31.5 256zM225 653q0 -126 26.5 -225 t72 -163.5t109.5 -107t135.5 -60t154.5 -17.5q82 0 153.5 19.5t135.5 63t110 108.5t72.5 163t26.5 219q0 185 -54.5 320.5t-167.5 213t-276 77.5t-276 -77.5t-167.5 -213t-54.5 -320.5zM510 1532l16 92q137 -128 346 -192h-215q-99 52 -147 100z" />
<glyph unicode="&#xd3;" horiz-adv-x="1447" d="M133 653q0 150 36 276.5t107 223t185.5 151t261.5 54.5q118 0 216 -35.5t167 -99.5t116.5 -152.5t70 -193.5t22.5 -224q0 -170 -47.5 -300.5t-130.5 -209t-187.5 -118t-226.5 -39.5q-97 0 -182 22t-161 73t-130 126.5t-85.5 189.5t-31.5 256zM225 653q0 -126 26.5 -225 t72 -163.5t109.5 -107t135.5 -60t154.5 -17.5q82 0 153.5 19.5t135.5 63t110 108.5t72.5 163t26.5 219q0 185 -54.5 320.5t-167.5 213t-276 77.5t-276 -77.5t-167.5 -213t-54.5 -320.5zM641 1452q208 64 346 193l17 -93q-49 -49 -146 -100h-217z" />
<glyph unicode="&#xd4;" horiz-adv-x="1447" d="M133 653q0 150 36 276.5t107 223t185.5 151t261.5 54.5q118 0 216 -35.5t167 -99.5t116.5 -152.5t70 -193.5t22.5 -224q0 -170 -47.5 -300.5t-130.5 -209t-187.5 -118t-226.5 -39.5q-97 0 -182 22t-161 73t-130 126.5t-85.5 189.5t-31.5 256zM225 653q0 -126 26.5 -225 t72 -163.5t109.5 -107t135.5 -60t154.5 -17.5q82 0 153.5 19.5t135.5 63t110 108.5t72.5 163t26.5 219q0 185 -54.5 320.5t-167.5 213t-276 77.5t-276 -77.5t-167.5 -213t-54.5 -320.5zM475 1542q51 51 170 117h166q115 -60 172 -117l-16 -92q-96 86 -238 152 q-140 -64 -237 -150z" />
<glyph unicode="&#xd5;" horiz-adv-x="1447" d="M133 651q0 150 36 276.5t107 223t185.5 151t261.5 54.5q118 0 216 -35.5t167 -99t116.5 -152t70 -193.5t22.5 -225v2q0 -170 -47.5 -301.5t-130.5 -210t-187.5 -118t-226.5 -39.5q-97 0 -182 22.5t-160.5 73t-130 126.5t-86 189.5t-31.5 255.5zM225 653 q0 -126 26.5 -225.5t72 -164t109.5 -107t135.5 -60.5t154.5 -18q103 0 190 32t157.5 98.5t110.5 180t40 264.5v-2q0 185 -54.5 320.5t-167.5 213t-276 77.5q-243 0 -370.5 -164t-127.5 -445zM430 1530l19 104q37 11 77 11q59 0 110 -21.5t81 -46.5t70.5 -46.5t80.5 -21.5 q46 0 86 15l19 -88h2q-68 -21 -109 -21q-46 0 -85.5 14t-68 33.5t-55.5 39.5t-62 34t-75 14q-42 0 -90 -20z" />
<glyph unicode="&#xd6;" horiz-adv-x="1447" d="M133 653q0 150 36 276.5t107 223t185.5 151t261.5 54.5q118 0 216 -35.5t167 -99.5t116.5 -152.5t70 -193.5t22.5 -224q0 -170 -47.5 -300.5t-130.5 -209t-187.5 -118t-226.5 -39.5q-97 0 -182 22t-161 73t-130 126.5t-85.5 189.5t-31.5 256zM225 653q0 -126 26.5 -225 t72 -163.5t109.5 -107t135.5 -60t154.5 -17.5q82 0 153.5 19.5t135.5 63t110 108.5t72.5 163t26.5 219q0 185 -54.5 320.5t-167.5 213t-276 77.5t-276 -77.5t-167.5 -213t-54.5 -320.5zM393 1552q0 28 20 48t46 20q27 0 47 -20t20 -46q0 -28 -19.5 -47.5t-45.5 -19.5 q-28 0 -48 19.5t-20 45.5zM901 1552q0 28 19 48t47 20q26 0 45.5 -20t19.5 -46q0 -28 -18.5 -47.5t-46.5 -19.5q-26 0 -46 19.5t-20 45.5z" />
<glyph unicode="&#xd7;" horiz-adv-x="942" d="M61 78l345 342l-326 325l33 91l352 -355l348 348l33 -90l-320 -317l355 -352l-62 -64l-352 354l-358 -360z" />
<glyph unicode="&#xd8;" horiz-adv-x="1447" d="M133 653q0 150 36 276.5t107 223t185.5 151t261.5 54.5q193 0 330 -94l53 77l108 17l-98 -146q98 -95 148.5 -239.5t50.5 -319.5q0 -170 -47.5 -300.5t-130.5 -209t-187.5 -118t-226.5 -39.5q-211 0 -350 100l-64 -98l-110 -6l108 159q-174 174 -174 512zM225 653 q0 -286 133 -432l643 965v-2q-116 80 -278 80q-163 0 -276 -77.5t-167.5 -213t-54.5 -320.5zM424 164q120 -84 299 -84q82 0 153.5 19.5t135.5 63t110 108.5t72.5 163t26.5 219q0 317 -156 480z" />
<glyph unicode="&#xd9;" horiz-adv-x="1331" d="M184 426v883l92 47v-930q0 -95 27 -164t76 -107.5t109 -56.5t133 -18q117 0 232 28t200 82v1119l94 47v-1217q-198 -151 -510 -155h-10q-92 0 -171 26.5t-140.5 79.5t-96.5 139t-35 197zM420 1552l16 93q139 -130 344 -193h-213q-99 52 -147 100z" />
<glyph unicode="&#xda;" horiz-adv-x="1331" d="M184 426v883l92 47v-930q0 -95 27 -164t76 -107.5t109 -56.5t133 -18q117 0 232 28t200 82v1119l94 47v-1217q-198 -151 -510 -155h-10q-92 0 -171 26.5t-140.5 79.5t-96.5 139t-35 197zM584 1432q211 65 344 192l16 -92h2q-55 -52 -147 -100h-215z" />
<glyph unicode="&#xdb;" horiz-adv-x="1331" d="M184 426v883l92 47v-930q0 -95 27 -164t76 -107.5t109 -56.5t133 -18q117 0 232 28t200 82v1119l94 47v-1217q-198 -151 -510 -155h-10q-92 0 -171 26.5t-140.5 79.5t-96.5 139t-35 197zM422 1542q51 51 170 117h166q115 -60 172 -117l-17 -92q-97 87 -237 152 q-142 -65 -238 -150z" />
<glyph unicode="&#xdc;" horiz-adv-x="1331" d="M184 422v883l92 47v-930q0 -76 18 -136.5t49.5 -99.5t76 -64.5t94 -36.5t107.5 -11q116 0 231.5 29t200.5 83v1119l94 47v-1217q-198 -151 -510 -155h-10q-92 0 -171 26.5t-140.5 79.5t-96.5 139t-35 197zM371 1552q0 28 19.5 48t45.5 20q27 0 46.5 -19.5t19.5 -46.5h2 q0 -28 -20 -47.5t-46 -19.5q-28 0 -47.5 19.5t-19.5 45.5zM842 1552q0 28 19.5 48t45.5 20q28 0 48 -20t20 -46q0 -28 -19.5 -47.5t-46.5 -19.5q-28 0 -47.5 19.5t-19.5 45.5z" />
<glyph unicode="&#xdd;" horiz-adv-x="1146" d="M184 715v594l92 47v-625q0 -99 47.5 -170.5t119.5 -104t157 -32.5q76 0 147 29t121 84v772l95 49v-928q0 -93 -14 -165.5t-41.5 -121.5t-62 -82.5t-81.5 -52t-95 -26t-106 -7.5l19 93q149 0 217.5 84t68.5 272q-121 -87 -268 -90q-175 0 -295.5 104t-120.5 277zM449 1446 q96 32 188 81.5t156 110.5l16 -90h2q-46 -46 -147 -102h-215z" />
<glyph unicode="&#xde;" horiz-adv-x="1097" d="M184 0v1309l92 47v-283h246q114 0 201 -33.5t138.5 -92.5t77.5 -134t26 -164v2q0 -118 -47.5 -212t-149.5 -152t-244 -58h-245v-229h-95zM276 322h246q93 0 162 25.5t109.5 72t59.5 104t19 127.5v-2q0 71 -19 129t-59 104t-109 71.5t-161 25.5h-248v-657z" />
<glyph unicode="&#xdf;" horiz-adv-x="942" d="M164 0v1157q87 103 194 148.5t246 50.5q164 -114 164 -309q0 -156 -164 -275q-56 -40 -81 -66t-25 -51q0 -35 57 -80l193 -165q62 -52 87 -99t25 -102q0 -52 -24 -92.5t-61.5 -64t-87 -39.5t-94.5 -21.5t-91 -5.5l14 86q113 3 182.5 39.5t69.5 99.5q0 66 -70 127 l-227 192q-70 63 -70 132q0 32 20.5 62.5t51.5 53.5t67.5 52.5t67.5 58t51.5 72t20.5 92.5q0 62 -28 121.5t-72 97.5q-208 -17 -328 -146v-1126h-88z" />
<glyph unicode="&#xe0;" horiz-adv-x="1003" d="M102 254q-1 67 24 120t70.5 87.5t99.5 55.5t120 32l336 53q0 133 -50.5 189.5t-142.5 56.5q-143 0 -379 -148l-16 93q217 139 391 139q285 0 285 -318v-614h-88v88q-178 -102 -367 -102q-142 0 -211.5 74t-71.5 194zM193 254q0 -184 202 -184q92 0 172.5 28t184.5 92v324 l-346 -55q-113 -18 -163 -70t-50 -135zM256 1202l16 92q126 -118 346 -190l-215 -2q-92 48 -147 100z" />
<glyph unicode="&#xe1;" horiz-adv-x="1003" d="M102 254q-1 67 24 120t70.5 87.5t99.5 55.5t120 32l336 53q0 133 -50.5 189.5t-142.5 56.5q-143 0 -379 -148l-16 93q217 139 391 139q285 0 285 -318v-614h-88v88q-178 -102 -367 -102q-142 0 -211.5 74t-71.5 194zM193 254q0 -184 202 -184q92 0 172.5 28t184.5 92v324 l-346 -55q-113 -18 -163 -70t-50 -135zM352 1102q217 71 346 192l17 -90q-41 -44 -146 -102h-217z" />
<glyph unicode="&#xe2;" horiz-adv-x="1003" d="M102 254q-1 67 24 120t70.5 87.5t99.5 55.5t120 32l336 53q0 133 -50.5 189.5t-142.5 56.5q-143 0 -379 -148l-16 93q217 139 391 139q285 0 285 -318v-614h-88v88q-178 -102 -367 -102q-142 0 -211.5 74t-71.5 194zM193 254q0 -184 202 -184q92 0 172.5 28t184.5 92v324 l-346 -55q-113 -18 -163 -70t-50 -135zM236 1171q52 55 170 117h165q118 -62 170 -114l-16 -93q-89 83 -236 150q-146 -65 -237 -150z" />
<glyph unicode="&#xe3;" horiz-adv-x="1003" d="M102 254q-1 67 24 120t70.5 87.5t99.5 55.5t120 32l336 53q0 133 -50.5 189.5t-142.5 56.5q-143 0 -379 -148l-16 93q217 139 391 139q285 0 285 -318v-614h-88v88q-178 -102 -367 -102q-142 0 -211.5 74t-71.5 194zM193 254q0 -184 202 -184q92 0 172.5 28t184.5 92v324 l-346 -55q-113 -18 -163 -70t-50 -135zM250 1178l18 102q33 10 78 10q59 0 110 -21t81 -46.5t70.5 -46.5t80.5 -21q50 0 86 16l19 -88q-65 -20 -109 -20q-46 0 -85.5 14t-67.5 33.5t-55 39.5t-62.5 34t-75.5 14q-43 0 -88 -20z" />
<glyph unicode="&#xe4;" horiz-adv-x="1003" d="M102 254q-1 67 24 120t70.5 87.5t99.5 55.5t120 32l336 53q0 133 -50.5 189.5t-142.5 56.5q-143 0 -379 -148l-16 93q217 139 391 139q285 0 285 -318v-614h-88v88q-178 -102 -367 -102q-142 0 -211.5 74t-71.5 194zM193 254q0 -184 202 -184q92 0 172.5 28t184.5 92v324 l-346 -55q-113 -18 -163 -70t-50 -135zM262 1225q0 26 20 45.5t46 19.5q28 0 46.5 -18.5t18.5 -46.5q0 -27 -19 -46.5t-46 -19.5t-46.5 19.5t-19.5 46.5zM600 1225q0 26 20 45.5t46 19.5q28 0 47.5 -18.5t19.5 -46.5q0 -27 -19.5 -46.5t-47.5 -19.5q-27 0 -46.5 19.5 t-19.5 46.5z" />
<glyph unicode="&#xe5;" horiz-adv-x="1003" d="M102 254q-1 67 24 120t70.5 87.5t99.5 55.5t120 32l336 53q0 133 -50.5 189.5t-142.5 56.5q-143 0 -379 -148l-16 93q217 139 391 139q285 0 285 -318v-614h-88v88q-178 -102 -367 -102q-142 0 -211.5 74t-71.5 194zM193 254q0 -184 202 -184q92 0 172.5 28t184.5 92v324 l-346 -55q-113 -18 -163 -70t-50 -135zM348 1212q0 72 51 124.5t123 52.5t124 -52t52 -125v2q0 -72 -52 -124t-124 -52t-123 51t-51 123zM426 1214q0 -40 28 -69t68 -29t68 28.5t28 69.5v-2q0 40 -28.5 69.5t-67.5 29.5q-40 0 -68 -28.5t-28 -68.5z" />
<glyph unicode="&#xe6;" horiz-adv-x="1523" d="M102 256q0 116 74 188.5t232 102.5l282 53q0 248 -192 248q-146 0 -338 -133l-17 92q194 125 349 125q222 0 272 -199q52 91 132 145t183 54q67 0 121.5 -20.5t89 -53t58 -75.5t33.5 -87t10 -88v2q0 -39 -10.5 -68t-26 -44t-39.5 -24t-43.5 -11.5t-46.5 -3.5l-447 -23 v-16q0 -341 389 -346q129 0 179 14l-19 -88q-69 -14 -151 -14q-137 2 -245.5 44.5t-160.5 121.5q-83 -74 -182.5 -120t-202.5 -46q-122 0 -199 65q-84 74 -84 205zM190 256q3 -182 195 -182q78 0 148 28t157 93v317l-287 -55q-101 -21 -157 -71.5t-56 -127.5v-2zM782 524 l441 21q26 2 35.5 3.5t23.5 7.5t18.5 18.5t4.5 33.5q0 22 -5 45v-2q-27 193 -223 193h-4q-126 0 -213 -121q-60 -90 -78 -199z" />
<glyph unicode="&#xe7;" horiz-adv-x="954" d="M113 440q0 100 24 182.5t63.5 137.5t93.5 93t112 54.5t120 16.5h4q84 -2 165 -32.5t136 -82.5l-18 -107q-29 57 -112 99t-173 43h-4q-61 0 -116.5 -22t-103.5 -67t-76.5 -125.5t-28.5 -187.5q0 -96 30.5 -170t83.5 -118.5t119 -67.5t143 -25h9q106 0 204 33l-12 -94 q-104 -23 -190 -23h-2l-6 -36q52 -20 81 -53t29 -93q0 -65 -42 -116.5t-105 -55.5l-27 84q36 0 62 23.5t26 60.5q0 49 -38.5 70.5t-96.5 21.5l22 101q-167 28 -271.5 143t-104.5 313z" />
<glyph unicode="&#xe8;" horiz-adv-x="946" d="M113 449q0 90 26.5 175.5t74.5 154.5t123 111t165 42q83 0 146 -30t97.5 -79t51 -102.5t16.5 -110.5v2q0 -39 -10.5 -68t-26 -44t-39.5 -24t-43.5 -11.5t-46.5 -3.5l-448 -23q14 -364 401 -364q121 0 168 14l-18 -88q-69 -14 -150 -14q-228 0 -357.5 120t-129.5 343z M205 526l440 21q23 2 29.5 2.5t21.5 4.5t19.5 10t9 17.5t4.5 28.5q0 110 -61 172t-172 62h2q-62 0 -115 -28t-88 -75t-57.5 -101.5t-32.5 -113.5zM248 1202l16 92q135 -126 346 -190l-215 -2q-92 48 -147 100z" />
<glyph unicode="&#xe9;" horiz-adv-x="946" d="M113 449q0 90 26.5 175.5t74.5 154.5t123 111t165 42q83 0 146 -30t97.5 -79t51 -102.5t16.5 -110.5v2q0 -39 -10.5 -68t-26 -44t-39.5 -24t-43.5 -11.5t-46.5 -3.5l-448 -23q14 -364 401 -364q121 0 168 14l-18 -88q-69 -14 -150 -14q-228 0 -357.5 120t-129.5 343z M205 526l440 21q23 2 29.5 2.5t21.5 4.5t19.5 10t9 17.5t4.5 28.5q0 110 -61 172t-172 62h2q-62 0 -115 -28t-88 -75t-57.5 -101.5t-32.5 -113.5zM416 1102q96 32 188 81.5t156 110.5l18 -90q-42 -45 -145 -102h-217z" />
<glyph unicode="&#xea;" horiz-adv-x="946" d="M113 449q0 90 26.5 175.5t74.5 154.5t123 111t165 42q83 0 146 -30t97.5 -78.5t51 -102t16.5 -109.5q0 -39 -10.5 -68t-26 -44t-39.5 -24t-43.5 -11.5t-46.5 -3.5l-448 -23q14 -364 401 -364q121 0 168 14l-18 -88q-69 -14 -150 -14q-228 0 -357.5 120t-129.5 343z M205 526l440 21q23 2 29.5 2.5t21.5 4.5t19.5 10t9 17.5t4.5 28.5q0 110 -61 172t-172 62h2q-62 0 -115 -28t-88 -75t-57.5 -101.5t-32.5 -113.5zM236 1171q52 55 170 117h165q118 -62 170 -114l-16 -93q-89 83 -236 150q-146 -65 -237 -150z" />
<glyph unicode="&#xeb;" horiz-adv-x="946" d="M113 449q0 90 26.5 175.5t74.5 154.5t123 111t165 42q83 0 146 -30t97.5 -79t51 -102.5t16.5 -110.5v2q0 -39 -10.5 -68t-26 -44t-39.5 -24t-43.5 -11.5t-46.5 -3.5l-448 -23q14 -364 401 -364q121 0 168 14l-18 -88q-69 -14 -150 -14q-228 0 -357.5 120t-129.5 343z M205 526l440 21q23 2 29.5 2.5t21.5 4.5t19.5 10t9 17.5t4.5 28.5q0 110 -61 172t-172 62h2q-62 0 -115 -28t-88 -75t-57.5 -101.5t-32.5 -113.5zM252 1167q0 28 19 48t46 20q26 0 46 -20t20 -46q0 -28 -19 -47.5t-47 -19.5q-26 0 -45.5 19.5t-19.5 45.5zM590 1167 q0 28 19.5 48t45.5 20q28 0 48 -20t20 -46q0 -27 -19.5 -47t-46.5 -20q-28 0 -47.5 19.5t-19.5 45.5z" />
<glyph unicode="&#xec;" horiz-adv-x="411" d="M-59 1202l16 92q131 -125 346 -190l-215 -2q-92 48 -147 100zM164 0v893l88 39v-932h-88z" />
<glyph unicode="&#xed;" horiz-adv-x="411" d="M98 1102q217 71 346 192l17 -90q-41 -44 -146 -102h-217zM164 0v893l86 39v-932h-86z" />
<glyph unicode="&#xee;" horiz-adv-x="411" d="M-47 1171q52 55 170 117h166q114 -60 172 -114l-17 -93q-100 89 -237 150q-142 -65 -238 -150zM162 0v891l88 39v-930h-88z" />
<glyph unicode="&#xef;" horiz-adv-x="411" d="M-8 1167q0 28 19 48t46 20q26 0 46 -20t20 -46q0 -28 -19 -47.5t-47 -19.5q-26 0 -45.5 19.5t-19.5 45.5zM164 0v893l86 39v-932h-86zM287 1167q0 28 19.5 48t47.5 20q26 0 46 -20t20 -46q0 -28 -19 -47.5t-47 -19.5q-26 0 -46.5 19.5t-20.5 45.5z" />
<glyph unicode="&#xf0;" horiz-adv-x="1134" d="M113 436v13q0 78 26 146.5t77.5 125t139 89t199.5 32.5q171 0 352 -117q-26 117 -100.5 205t-224.5 184l-113 -127l-68 57l105 115q-34 19 -172 96l-19 95q137 -60 248 -123l115 129l39 -92l-76 -84q210 -134 295.5 -282.5t85.5 -330.5q0 -115 -31 -219t-88.5 -185.5 t-148 -130.5t-201.5 -50h-4q-96 0 -178.5 40t-137.5 104.5t-86.5 145.5t-33.5 164zM209 453q0 -5 2 -7q0 -89 28.5 -161t77 -116.5t108 -68.5t124.5 -24h2q114 1 200 67t128.5 171.5t42.5 232.5v55q-94 69 -182 107.5t-185 38.5q-175 0 -260.5 -76t-85.5 -219z" />
<glyph unicode="&#xf1;" horiz-adv-x="1044" d="M164 0v723q91 90 214.5 149.5t225.5 59.5q124 0 200.5 -72.5t76.5 -208.5v-651h-88v618q0 109 -49.5 169.5t-135.5 60.5q-148 0 -356 -164v-684h-88zM260 1190l19 104q37 11 77 11q59 0 110 -21.5t81 -46.5t70.5 -46.5t80.5 -21.5q46 0 86 15l19 -88q-62 -19 -107 -19 q-56 0 -104.5 21t-77.5 45.5t-72.5 45.5t-91.5 21q-49 0 -90 -20z" />
<glyph unicode="&#xf2;" d="M113 444q0 221 104.5 354.5t304.5 133.5q202 0 307 -133t105 -355v2q0 -120 -33 -210.5t-90.5 -144t-129.5 -79.5t-157 -26q-86 0 -157.5 24t-129.5 76t-91 143t-33 215zM201 446q0 -372 321 -372q68 0 124 19t102 60.5t72 115.5t26 175q0 192 -82.5 296t-239.5 104 t-240 -103t-83 -295zM240 1202l16 92q135 -126 346 -190l-215 -2q-92 48 -147 100z" />
<glyph unicode="&#xf3;" d="M113 444q0 221 104.5 354.5t304.5 133.5q202 0 307 -133t105 -355v2q0 -120 -33 -210.5t-90.5 -144t-129.5 -79.5t-157 -26q-86 0 -157.5 24t-129.5 76t-91 143t-33 215zM201 446q0 -372 321 -372q68 0 124 19t102 60.5t72 115.5t26 175q0 192 -82.5 296t-239.5 104 t-240 -103t-83 -295zM449 1102q217 71 346 192l16 -90q-42 -45 -145 -102h-217z" />
<glyph unicode="&#xf4;" d="M113 444q0 221 104.5 354.5t304.5 133.5q202 0 307 -133t105 -355v2q0 -120 -33 -210.5t-90.5 -144t-129.5 -79.5t-157 -26q-86 0 -157.5 24t-129.5 76t-91 143t-33 215zM201 446q0 -372 321 -372q68 0 124 19t102 61t72 116t26 176v-2q0 192 -82.5 296t-239.5 104 t-240 -103t-83 -295zM244 1171q52 55 170 117h166q118 -62 170 -114l-17 -93q-90 84 -235 150q-148 -65 -238 -150z" />
<glyph unicode="&#xf5;" d="M113 444q0 221 104.5 354.5t304.5 133.5q202 0 307 -133t105 -355v2q0 -120 -33 -210.5t-90.5 -144t-129.5 -79.5t-157 -26q-86 0 -157.5 24t-129.5 76t-91 143t-33 215zM201 446q0 -372 321 -372q68 0 124 19t102 60.5t72 115.5t26 175q0 192 -82.5 296t-239.5 104 t-240 -103t-83 -295zM262 1190l21 104q37 11 77 11q59 0 109.5 -21.5t80.5 -46.5t70 -46.5t80 -21.5q48 0 88 15l19 -88q-62 -19 -109 -19q-56 0 -104.5 21t-77.5 45.5t-72.5 45.5t-91.5 21q-49 0 -90 -20z" />
<glyph unicode="&#xf6;" d="M113 444q0 221 104.5 354.5t304.5 133.5q202 0 307 -133t105 -355v2q0 -120 -33 -210.5t-90.5 -144t-129.5 -79.5t-157 -26q-86 0 -157.5 24t-129.5 76t-91 143t-33 215zM201 446q0 -372 321 -372q68 0 124 19t102 60.5t72 115.5t26 175q0 192 -82.5 296t-239.5 104 t-240 -103t-83 -295zM276 1167q0 28 20 48t46 20q28 0 48 -20t20 -46q0 -27 -20 -47t-46 -20q-28 0 -48 19.5t-20 45.5zM614 1167q0 28 20 48t46 20q28 0 48 -20t20 -46q0 -27 -20 -47t-46 -20q-28 0 -48 19.5t-20 45.5z" />
<glyph unicode="&#xf7;" horiz-adv-x="1249" d="M82 473l22 88h1063l-41 -88h-1044zM551 305q-1 29 20 50.5t50 21.5q31 0 52 -21.5t21 -50.5q1 -29 -19.5 -50.5t-49.5 -21.5q-31 0 -52.5 21.5t-21.5 50.5zM551 727q-1 30 19.5 52t50.5 22q31 0 52 -21.5t21 -52.5q1 -29 -19.5 -50.5t-49.5 -21.5q-31 0 -52.5 21.5 t-21.5 50.5z" />
<glyph unicode="&#xf8;" d="M113 446q0 221 104.5 353.5t304.5 132.5q142 0 240 -70l39 58l108 16l-88 -129q113 -131 113 -361q0 -119 -33 -209.5t-90.5 -144t-129.5 -80t-157 -26.5q-126 0 -221 53l-33 -49l-108 -4l71 104q-120 120 -120 356zM201 446q0 -183 84 -280l428 622q-77 56 -189 56 q-157 0 -240 -103t-83 -295zM352 113q66 -39 170 -39q68 0 124 19t102 61t72 116t26 176q0 178 -76 283z" />
<glyph unicode="&#xf9;" horiz-adv-x="1032" d="M164 319v564l86 49v-613q0 -131 60 -190t159 -59q74 0 157.5 28t153.5 72v713l88 49v-932h-88v72q-165 -86 -319 -86q-151 0 -224 89t-73 244zM272 1202l17 92q135 -126 346 -190l-215 -2q-94 49 -148 100zM457 -20h2h-2z" />
<glyph unicode="&#xfa;" horiz-adv-x="1032" d="M164 319v564l86 49v-613q0 -131 60 -190t159 -59q74 0 157.5 28t153.5 72v713l88 49v-932h-88v72q-165 -86 -319 -86q-151 0 -224 89t-73 244zM426 1102q96 32 188 81.5t156 110.5l18 -90q-48 -48 -145 -102h-217z" />
<glyph unicode="&#xfb;" horiz-adv-x="1032" d="M164 319v564l86 49v-613q0 -131 60 -190t159 -59q74 0 157.5 28t153.5 72v713l88 49v-932h-88v72q-165 -86 -319 -86q-151 0 -224 89t-73 244zM264 1171q24 24 74 58t98 59h164q114 -60 172 -114l-16 -93q-89 83 -236 150q-141 -63 -239 -150z" />
<glyph unicode="&#xfc;" horiz-adv-x="1032" d="M164 319v564l86 49v-613q0 -131 60 -190t159 -59q74 0 157.5 28t153.5 72v713l88 49v-932h-88v72q-165 -86 -319 -86q-151 0 -224 89t-73 244zM291 1167q0 28 19.5 48t45.5 20q28 0 48 -20t20 -46q0 -27 -20 -47t-46 -20q-28 0 -47.5 19.5t-19.5 45.5zM631 1167 q0 28 19 48t46 20q26 0 46 -20t20 -46q0 -28 -19 -47.5t-47 -19.5q-26 0 -45.5 19.5t-19.5 45.5z" />
<glyph unicode="&#xfd;" horiz-adv-x="1009" d="M164 319v566l86 47v-610q0 -132 56.5 -192t150.5 -60q71 0 153 28.5t148 71.5v715l88 47v-854q0 -477 -383 -477q-115 0 -258 55l28 88q144 -61 252 -61q138 0 208.5 109t70.5 284q-169 -90 -313 -90q-129 -2 -208 77.5t-79 255.5zM352 1102q217 71 346 192l17 -90 q-41 -44 -146 -102h-217z" />
<glyph unicode="&#xfe;" horiz-adv-x="1005" d="M164 -385v1696l88 45v-488q128 64 262 64q110 0 197.5 -62t134.5 -166t47 -229q0 -224 -96 -356.5t-275 -132.5q-164 0 -270 106v-477h-88zM252 283q0 -76 75 -142.5t193 -66.5q133 0 209 101t76 300q0 163 -84 266t-207 103q-131 0 -262 -76v-485z" />
<glyph unicode="&#xff;" horiz-adv-x="1009" d="M164 319v566l86 47v-610q0 -132 56.5 -192t150.5 -60q71 0 153 28.5t148 71.5v715l88 47v-854q0 -477 -383 -477q-115 0 -258 55l28 88q144 -61 252 -61q138 0 208.5 109t70.5 284q-169 -90 -313 -90q-129 -2 -208 77.5t-79 255.5zM281 1223q0 28 19.5 47.5t45.5 19.5 q28 0 48 -19.5t20 -45.5q0 -28 -20 -48t-46 -20q-28 0 -47.5 19.5t-19.5 46.5zM618 1223q0 27 20 47t46 20q28 0 48 -19.5t20 -45.5q0 -28 -20 -48t-46 -20q-28 0 -48 20t-20 46z" />
<glyph unicode="&#x152;" horiz-adv-x="2082" d="M133 651q0 150 36 276.5t107 223t185.5 151t261.5 54.5q177 0 302.5 -76t197.5 -213v231q323 60 612 60q19 0 57 -2t58 -2l-15 -92q-33 2 -98 2q-280 0 -520 -41v-465h530l-49 -94h-481v-570h612l-16 -94h-688v254q-77 -134 -209 -201t-293 -67q-122 0 -225 36.5 t-186.5 113t-131 208t-47.5 307.5zM225 653q0 -126 26.5 -225t72 -163.5t109.5 -107t135.5 -60t154.5 -17.5q82 0 153.5 19.5t135.5 63t110 108.5t72.5 163t26.5 219v-2q0 185 -54.5 320.5t-167.5 213t-276 77.5q-243 0 -370.5 -164t-127.5 -445z" />
<glyph unicode="&#x153;" horiz-adv-x="1687" d="M113 446q0 221 104.5 353.5t304.5 132.5q143 0 237 -67t138 -189q47 115 136 185.5t208 70.5q83 0 146.5 -29.5t98 -78t51.5 -101.5t17 -109q0 -39 -11 -68t-26 -44t-40.5 -24.5t-44 -12.5t-46.5 -4l-446 -21q11 -366 399 -366q126 0 168 14l-16 -88q-86 -14 -145 -14 q-97 0 -180.5 23t-156.5 79t-112 141q-48 -122 -146.5 -182.5t-226.5 -60.5q-86 0 -157.5 24.5t-129.5 76.5t-91 143.5t-33 215.5zM201 446q0 -372 321 -372q68 0 124 19t102 61t72 116t26 176q0 192 -82.5 295t-239.5 103t-240 -103t-83 -295zM944 526l440 23q21 1 29 1.5 t21.5 4t18 9.5t9 17.5t4.5 28.5q0 27 -4 45h2q-30 189 -229 189q-62 0 -114.5 -28t-87 -75t-56.5 -101t-33 -114z" />
<glyph unicode="&#x178;" horiz-adv-x="1146" d="M184 713v596l92 47v-625q0 -99 47.5 -170.5t119.5 -104t157 -32.5q76 0 147 29t121 84v772l95 47v-926q0 -93 -14 -165.5t-41.5 -121.5t-62 -82.5t-81.5 -52t-95 -26t-106 -7.5l19 93q149 0 217.5 84t68.5 272q-121 -87 -268 -90h-8q-108 0 -200 44t-150 132t-58 203z M330 1554q0 28 19.5 48t45.5 20q28 0 48 -20t20 -46q0 -28 -19.5 -47.5t-46.5 -19.5q-28 0 -47.5 19.5t-19.5 45.5zM713 1554q0 28 19.5 48t45.5 20q28 0 48 -20t20 -46q0 -28 -20 -47.5t-46 -19.5q-28 0 -47.5 19.5t-19.5 45.5z" />
<glyph unicode="&#x2c6;" horiz-adv-x="917" d="M205 1192q42 45 145 102h215q94 -49 148 -100l-17 -92q-98 87 -237 149q-145 -66 -238 -149z" />
<glyph unicode="&#x2dc;" horiz-adv-x="954" d="M205 1190l20 104q37 11 78 11q59 0 109.5 -21.5t80.5 -46.5t70 -46.5t80 -21.5q47 0 88 15l19 -88q-62 -19 -109 -19q-56 0 -104.5 21t-77.5 45.5t-72.5 45.5t-91.5 21q-49 0 -90 -20z" />
<glyph unicode="&#x2000;" horiz-adv-x="829" />
<glyph unicode="&#x2001;" horiz-adv-x="1659" />
<glyph unicode="&#x2002;" horiz-adv-x="829" />
<glyph unicode="&#x2003;" horiz-adv-x="1659" />
<glyph unicode="&#x2004;" horiz-adv-x="553" />
<glyph unicode="&#x2005;" horiz-adv-x="414" />
<glyph unicode="&#x2006;" horiz-adv-x="276" />
<glyph unicode="&#x2007;" horiz-adv-x="276" />
<glyph unicode="&#x2008;" horiz-adv-x="207" />
<glyph unicode="&#x2009;" horiz-adv-x="331" />
<glyph unicode="&#x200a;" horiz-adv-x="92" />
<glyph unicode="&#x2010;" horiz-adv-x="667" d="M82 473l22 88h482l-41 -88h-463z" />
<glyph unicode="&#x2011;" horiz-adv-x="667" d="M82 473l22 88h482l-41 -88h-463z" />
<glyph unicode="&#x2012;" horiz-adv-x="667" d="M82 473l22 88h482l-41 -88h-463z" />
<glyph unicode="&#x2013;" horiz-adv-x="749" d="M61 473l23 88h604l-41 -88h-586z" />
<glyph unicode="&#x2014;" horiz-adv-x="980" d="M61 473l25 88h834l-41 -88h-818z" />
<glyph unicode="&#x2018;" horiz-adv-x="260" d="M61 1077q0 127 52 281l86 -10q-49 -159 -49 -263z" />
<glyph unicode="&#x2019;" horiz-adv-x="260" d="M61 1094q49 159 52 262l86 8q0 -127 -52 -281z" />
<glyph unicode="&#x201a;" horiz-adv-x="301" d="M82 -156q48 156 51 262l86 9q0 -133 -51 -281z" />
<glyph unicode="&#x201c;" horiz-adv-x="440" d="M82 1077q0 146 49 291l86 -10q-47 -152 -47 -273zM221 1077q0 126 49 281l88 -12v2q-48 -145 -51 -263z" />
<glyph unicode="&#x201d;" horiz-adv-x="440" d="M82 1094q48 156 51 262l86 8q0 -130 -51 -281zM223 1083q47 152 47 273l88 8q0 -136 -49 -291z" />
<glyph unicode="&#x201e;" horiz-adv-x="440" d="M82 -156q48 156 51 262l86 9q0 -133 -51 -281zM223 -166q47 152 47 272l88 9q0 -139 -49 -291z" />
<glyph unicode="&#x2022;" horiz-adv-x="557" d="M82 506q0 80 58 138t139 58q80 0 138 -57.5t58 -138.5q0 -80 -57.5 -138.5t-138.5 -58.5q-80 0 -138.5 58t-58.5 139z" />
<glyph unicode="&#x2026;" horiz-adv-x="915" d="M61 55q0 28 20.5 48t49.5 20q28 0 48 -20t20 -48q0 -29 -20 -49t-48 -20q-29 0 -49.5 20t-20.5 49zM389 55q0 28 20.5 48t49.5 20q28 0 47.5 -20t19.5 -48q0 -29 -19.5 -49t-47.5 -20q-29 0 -49.5 20t-20.5 49zM717 55q0 28 20 48t49 20q28 0 48 -20t20 -48 q0 -29 -20 -49t-48 -20q-29 0 -49 20t-20 49z" />
<glyph unicode="&#x202f;" horiz-adv-x="331" />
<glyph unicode="&#x2039;" horiz-adv-x="438" d="M82 487l143 347l101 26l-152 -373l162 -391h-88z" />
<glyph unicode="&#x203a;" horiz-adv-x="438" d="M102 96l160 391l-151 373l102 -26l143 -347l-166 -391h-88z" />
<glyph unicode="&#x205f;" horiz-adv-x="414" />
<glyph unicode="&#x20ac;" horiz-adv-x="1484" d="M61 545l48 86h202v35q0 35 2 53h-198l49 86h155q26 175 113 302t209 188.5t266 60.5q95 0 210 -35.5t204 -97.5l-14 -111q-93 74 -207.5 115t-204.5 43q-181 0 -311.5 -129t-167.5 -334h565l-45 -88h-530q-3 -24 -3 -51v-35h480l-45 -88h-426q28 -212 160 -339.5 t341 -127.5q212 0 367 98l-16 -115q-151 -75 -349 -75q-252 0 -410 152.5t-188 406.5h-256z" />
<glyph unicode="&#x2122;" horiz-adv-x="1288" d="M82 1268l10 73h459l-10 -73h-187v-547h-75v547h-197zM596 719l55 600l72 29l184 -469l183 469l71 -29l66 -600h-76l-47 459l-152 -394h-94l-145 390l-41 -455h-76z" />
<glyph unicode="&#xe000;" horiz-adv-x="931" d="M0 0v932h932v-932h-932z" />
</font>
</defs>
</svg>
